<svg width="12" height="9" viewBox="0 0 12 9" fill="none" xmlns="http://www.w3.org/2000/svg">
<path d="M11.9525 7.26373C11.9525 7.15204 11.9131 7.05324 11.8344 6.96733L6.33122 0.962179C6.25249 0.876269 6.16195 0.833314 6.0596 0.833314C5.95726 0.833314 5.86672 0.876269 5.78799 0.962179L0.284841 6.96733C0.206112 7.05324 0.166748 7.15204 0.166748 7.26373C0.166748 7.37541 0.206112 7.47421 0.284841 7.56012L0.875308 8.20445C0.954037 8.29036 1.04458 8.33331 1.14692 8.33331C1.24927 8.33331 1.33981 8.29036 1.41854 8.20445L6.0596 3.14001L10.7007 8.20445C10.7794 8.29036 10.8699 8.33331 10.9723 8.33331C11.0746 8.33331 11.1652 8.29036 11.2439 8.20445L11.8344 7.56012C11.9131 7.47421 11.9525 7.37541 11.9525 7.26373Z" fill="white"/>
<path d="M11.9525 7.26373C11.9525 7.15204 11.9131 7.05324 11.8344 6.96733L6.33122 0.962179C6.25249 0.876269 6.16195 0.833314 6.0596 0.833314C5.95726 0.833314 5.86672 0.876269 5.78799 0.962179L0.284841 6.96733C0.206112 7.05324 0.166748 7.15204 0.166748 7.26373C0.166748 7.37541 0.206112 7.47421 0.284841 7.56012L0.875308 8.20445C0.954037 8.29036 1.04458 8.33331 1.14692 8.33331C1.24927 8.33331 1.33981 8.29036 1.41854 8.20445L6.0596 3.14001L10.7007 8.20445C10.7794 8.29036 10.8699 8.33331 10.9723 8.33331C11.0746 8.33331 11.1652 8.29036 11.2439 8.20445L11.8344 7.56012C11.9131 7.47421 11.9525 7.37541 11.9525 7.26373Z" fill="black"/>
</svg>