<svg width="20" height="20" viewBox="0 0 20 20" fill="none"
  xmlns="http://www.w3.org/2000/svg">
  <path d="M18.9193 1.09501C18.3672 0.54287 17.4752 0.54287 16.9231 1.09501L10.0001 8.00388L3.07706 1.08086C2.52492 0.528712 1.633 0.528712 1.08085 1.08086C0.528712 1.633 0.528712 2.52492 1.08085 3.07706L8.00387 10.0001L1.08085 16.9231C0.528712 17.4752 0.528712 18.3672 1.08085 18.9193C1.633 19.4715 2.52492 19.4715 3.07706 18.9193L10.0001 11.9963L16.9231 18.9193C17.4752 19.4715 18.3672 19.4715 18.9193 18.9193C19.4714 18.3672 19.4714 17.4752 18.9193 16.9231L11.9963 10.0001L18.9193 3.07706C19.4573 2.53908 19.4573 1.633 18.9193 1.09501Z" fill="currentColor"/>
</svg>
