<?xml version="1.0" encoding="utf-8"?>
<!-- Generator: Adobe Illustrator 25.4.1, SVG Export Plug-In . SVG Version: 6.00 Build 0)  -->
<svg version="1.1" id="Livello_1" xmlns="http://www.w3.org/2000/svg" xmlns:xlink="http://www.w3.org/1999/xlink" x="0px" y="0px"
	 viewBox="0 0 841.9 595.3" style="enable-background:new 0 0 841.9 595.3;" xml:space="preserve">
<style type="text/css">
	.st0{fill:#231F20;}
	.st1{fill:#E52629;}
</style>
<polygon class="st0" points="345.1,342.6 359.3,253.1 380.4,253.1 374.7,288.9 420.5,288.9 445.8,253.1 468.9,253.1 437.9,296.7 
	458.9,342.6 435.4,342.6 419.5,307.7 371.7,307.7 366.2,342.6 "/>
<path class="st1" d="M485.9,253.1h82.4c16.5,0,23.6,11.5,21.6,24.3l-0.8,4.6c-0.8,5-3.6,9.7-7.9,13.4c6.4,4.1,8.9,11,7.8,18.1
	l-0.5,2.8c-2.2,13.9-13,26.2-29.5,26.2h-87.2L485.9,253.1z M498.6,306.2l-2.8,17.6h63.7c3.8,0,7-1.8,7.8-6.4l0.8-4.9
	c0.8-4.6-1.9-6.4-5.7-6.4H498.6z M504.1,271.9l-2.6,15.6h58.9c3.8,0,7-1.8,7.8-6.4l0.5-2.8c0.6-4.6-1.9-6.4-5.8-6.4H504.1z"/>
<polygon class="st1" points="295.8,342.5 323.9,342.5 338.1,252.9 310,252.9 "/>
<polygon class="st1" points="246.6,342.5 274.7,342.5 288.9,252.9 260.8,252.9 "/>
<polygon class="st0" points="197.4,342.5 225.5,342.5 239.7,252.9 211.6,252.9 "/>
<polygon class="st0" points="148.2,342.5 176.3,342.5 190.6,252.9 162.4,252.9 "/>
<path class="st0" d="M693.6,252.4l-9.2,57.5h9.7l-1.7,10.7h-9.7l-3.5,22.2h-11l3.5-22.2h-71.1l1.7-10.7l80.2-57.5H693.6z
	 M673.5,309.9l7.1-44.5l-62.2,44.5H673.5z"/>
</svg>
