<?xml version="1.0" encoding="utf-8"?>
<!-- Generator: Adobe Illustrator 26.0.1, SVG Export Plug-In . SVG Version: 6.00 Build 0)  -->
<svg version="1.1" id="Livello_1" xmlns="http://www.w3.org/2000/svg" xmlns:xlink="http://www.w3.org/1999/xlink" x="0px" y="0px"
	 viewBox="0 0 841.9 595.3" style="enable-background:new 0 0 841.9 595.3;" xml:space="preserve">
<style type="text/css">
	.st0{clip-path:url(#SVGID_00000036937461152663538370000012511092915531683498_);}
	.st1{clip-path:url(#SVGID_00000116951174198955712930000002258353340061787838_);}
	.st2{fill:#231F20;}
	.st3{fill:#E52629;}
</style>
<g>
	<g>
		<defs>
			<path id="SVGID_1_" d="M650.3,341.6h-11.6l7-45.5h35c6.8,0,12.1,0.9,16.1,2.8c3.9,1.9,5.7,4.1,5.4,6.8l-1.4,9.4
				c-0.3,1.9-1.9,3.8-4.8,5.5c-2.9,1.7-6.6,2.9-11.2,3.6l12.9,17.3h-12.2l-12.6-16.9H653L650.3,341.6z M678.8,301.7h-22.2l-2.7,17.6
				h23.2c3.2,0,5.9-0.5,8.3-1.5s3.7-2.2,3.9-3.7l1.1-7c0.3-1.7-0.8-2.9-2.9-3.9C685.1,302.1,682.3,301.7,678.8,301.7z M764.6,326.8
				h11.5l-0.8,5.2c-0.4,2.8-2.8,5.1-7.3,7.1c-4.3,1.9-9.8,2.9-16.2,2.9h-14.1c-6.6,0-11.8-1-15.8-2.9c-3.9-2-5.7-4.3-5.2-7l4.1-26.1
				c0.4-2.7,2.9-5.1,7.4-7c4.6-2,10.1-2.9,16.7-2.9H759c6.4,0,11.5,1,15.3,2.9s5.5,4.3,5,7.1l-0.8,5h-11.5l0.6-3.8
				c0.3-1.8-0.6-3.2-2.7-4.2c-2-1-4.7-1.5-8-1.5h-12.4c-3.3,0-6.1,0.5-8.5,1.5c-2.4,1-3.7,2.4-3.9,4.2l-3.7,23.7
				c-0.3,1.8,0.6,3.2,2.7,4.2c2,1,4.7,1.5,8,1.5h12.4c3.3,0,6.1-0.5,8.5-1.5s3.7-2.4,3.9-4.2L764.6,326.8z"/>
		</defs>
		<use xlink:href="#SVGID_1_"  style="overflow:visible;fill:#231F20;"/>
		<clipPath id="SVGID_00000029004676882679457640000018326191274436806332_">
			<use xlink:href="#SVGID_1_"  style="overflow:visible;"/>
		</clipPath>
		<g style="clip-path:url(#SVGID_00000029004676882679457640000018326191274436806332_);">
			<g>
				<defs>
					<rect id="SVGID_00000044159878928473347070000010903292981465389751_" x="-118.6" y="-73.2" width="1072.7" height="758.4"/>
				</defs>
				<use xlink:href="#SVGID_00000044159878928473347070000010903292981465389751_"  style="overflow:visible;fill:#231F20;"/>
				<clipPath id="SVGID_00000136381559141464339210000013379448399504118450_">
					<use xlink:href="#SVGID_00000044159878928473347070000010903292981465389751_"  style="overflow:visible;"/>
				</clipPath>
				<g style="clip-path:url(#SVGID_00000136381559141464339210000013379448399504118450_);">
					
						<image style="overflow:visible;enable-background:new    ;" width="3508" height="2483" xlink:href="8D0E2AE82442EB22.jpg"  transform="matrix(0.3057 0 0 0.3057 -118.408 -73.4566)">
					</image>
				</g>
			</g>
		</g>
	</g>
</g>
<polygon class="st2" points="275.1,342.6 289.3,253.1 310.4,253.1 304.7,288.9 350.5,288.9 375.8,253.1 398.9,253.1 367.9,296.7 
	388.9,342.6 365.4,342.6 349.5,307.7 301.7,307.7 296.2,342.6 "/>
<path class="st3" d="M415.9,253.1h82.4c16.5,0,23.6,11.5,21.6,24.3l-0.8,4.6c-0.8,5-3.6,9.7-7.9,13.4c6.4,4.1,8.9,11,7.8,18.1
	l-0.5,2.8c-2.2,13.9-13,26.2-29.5,26.2h-87.2L415.9,253.1z M428.6,306.2l-2.8,17.6h63.7c3.8,0,7-1.8,7.8-6.4l0.8-4.9
	c0.8-4.6-1.9-6.4-5.7-6.4L428.6,306.2L428.6,306.2z M434.1,271.9l-2.6,15.6h58.9c3.8,0,7-1.8,7.8-6.4l0.5-2.8
	c0.6-4.6-1.9-6.4-5.8-6.4L434.1,271.9L434.1,271.9z"/>
<polygon class="st3" points="225.8,342.5 253.9,342.5 268.1,252.9 240,252.9 "/>
<polygon class="st3" points="176.6,342.5 204.7,342.5 218.9,252.9 190.8,252.9 "/>
<polygon class="st2" points="127.4,342.5 155.5,342.5 169.7,252.9 141.6,252.9 "/>
<polygon class="st2" points="78.2,342.5 106.3,342.5 120.6,252.9 92.4,252.9 "/>
<path class="st2" d="M623.6,252.4l-9.2,57.5h9.7l-1.7,10.7h-9.7l-3.5,22.2h-11l3.5-22.2h-71.1l1.7-10.7l80.2-57.5H623.6z
	 M603.5,309.9l7.1-44.5l-62.2,44.5H603.5z"/>
</svg>
