<svg xmlns="http://www.w3.org/2000/svg" width="124" height="34" viewBox="0 0 124 34">
  <path d="M11.0061 1.0854C12.8727 0.387149 14.8914 0 17 0C26.3883 0 34 7.61163 34 17C34 26.3884 26.3883 34 17 34C7.61161 34 0 27.4807 0 16.3432V0.967874H3.85076V16.4746C3.85076 24.7845 9.74093 30.1492 17 30.1492C24.259 30.1492 30.1492 24.259 30.1492 17C30.1492 9.74095 24.259 3.85075 17 3.85075C14.843 3.85075 12.8036 4.36926 11.0061 5.28874V1.0854Z" fill="#ED1D24"/>
  <path d="M11.0061 7.18991C12.7482 6.12525 14.8015 5.50995 17 5.50995C23.3464 5.50995 28.4969 10.6535 28.4969 17.0069C28.4969 23.3603 23.3464 28.5039 17 28.5039C10.6535 28.5039 5.50305 24.1415 5.50305 15.7003V0.981689H9.35377V15.963C9.35377 21.5836 12.7759 24.6531 17 24.6531C21.224 24.6531 24.6462 21.231 24.6462 17.0069C24.6462 12.7828 21.224 9.36071 17 9.36071C13.9581 9.36071 11.9048 10.7641 11.0061 11.5315V7.19682V7.18991Z" fill="currentColor"/>
  <path d="M108.27 21.8047V25.932C108.098 25.9458 107.946 25.9528 107.821 25.9528C107.123 25.9528 106.459 25.856 105.837 25.6555C105.201 25.4688 104.62 25.1854 104.095 24.8051C103.562 24.4456 103.099 23.9963 102.691 23.457C102.36 22.9938 102.104 22.5376 101.91 22.0813C101.73 21.6457 101.606 21.1272 101.53 20.5188C101.454 19.8828 101.419 19.1085 101.419 18.1959V8.02637H105.795V11.5522H108.27V15.5689H105.616V19.226C105.616 20.8714 106.383 22.0536 108.27 21.7978" fill="currentColor"/>
  <path d="M92.7914 11.3793C88.7678 11.3793 85.5116 14.6424 85.5116 18.6591C85.5116 22.6757 88.7747 25.9458 92.7914 25.9458C96.808 25.9458 100.078 22.6826 100.078 18.6591C100.078 14.6355 96.8149 11.3793 92.7914 11.3793ZM92.7914 21.7424C91.0907 21.7424 89.708 20.3598 89.708 18.6591C89.708 16.9584 91.0907 15.5757 92.7914 15.5757C94.4921 15.5757 95.8747 16.9584 95.8747 18.6591C95.8747 20.3598 94.4921 21.7424 92.7914 21.7424Z" fill="currentColor"/>
  <path d="M62.5038 11.566H58.3005V25.6624H62.5038V11.566Z" fill="currentColor"/>
  <path d="M62.5038 8.03333H58.3005V10.4392H62.5038V8.03333Z" fill="currentColor"/>
  <path d="M74.2911 12.8935C75.6531 11.7666 76.7523 11.3311 78.287 11.3311C80.1951 11.3311 81.8474 12.1676 82.919 13.647C83.8454 14.9191 84.1081 15.9907 84.1081 18.5348V25.6487H79.9048V18.196C79.9048 17.0139 79.8495 16.6958 79.5314 16.2396C79.2342 15.8109 78.7571 15.569 78.1902 15.569C77.6233 15.569 77.1187 15.8109 76.8214 16.2396C76.4965 16.6958 76.3928 17.1521 76.3928 18.1684V25.6487H72.1894V18.1684C72.1894 17.1521 72.0788 16.6958 71.7608 16.2396C71.4635 15.8109 70.9589 15.569 70.392 15.569C69.8251 15.569 69.3481 15.8109 69.0508 16.2396C68.7328 16.6958 68.6774 17.0139 68.6774 18.196V25.6487H64.4741V18.5348C64.4741 15.9907 64.7368 14.9191 65.6632 13.647C66.7348 12.1676 68.3802 11.3311 70.2952 11.3311C71.8299 11.3311 72.9292 11.7666 74.2911 12.8935Z" fill="currentColor"/>
  <path d="M55.8393 14.9468C55.1895 13.8337 54.2976 12.9557 53.1638 12.3266C52.0231 11.6975 50.7787 11.3794 49.4375 11.3794C49.002 11.3794 48.4213 11.4486 47.8336 11.5868C47.806 11.5868 47.7852 11.6007 47.7714 11.6007V16.0114C48.3176 15.7694 49.2232 15.5206 50.1081 15.6657C51.5323 15.9215 52.6177 17.1659 52.6177 18.6661C52.6177 20.3461 51.2558 21.7149 49.5689 21.7149C48.8084 21.7149 48.1171 21.4384 47.5848 20.9821C46.7966 20.2493 46.5201 19.6824 46.5201 18.0509V8.04028H42.3168V18.7629C42.3168 20.0696 42.6417 21.2725 43.2915 22.3786C43.9276 23.4848 44.8056 24.3559 45.9255 24.9988C47.0386 25.6348 48.2622 25.9459 49.5827 25.9459C50.9032 25.9459 52.1199 25.621 53.2261 24.9712C54.3253 24.3213 55.1964 23.4295 55.8462 22.2957C56.4892 21.1757 56.8072 19.9451 56.8072 18.6247C56.8072 17.3042 56.4823 16.0736 55.8324 14.9537" fill="currentColor"/>
  <path d="M122.491 14.9605C121.828 13.8474 120.95 12.9694 119.843 12.3403C118.73 11.7112 117.507 11.3932 116.172 11.3932C114.838 11.3932 113.642 11.7181 112.543 12.368C111.437 13.0178 110.566 13.9097 109.923 15.0296C109.273 16.1634 108.948 17.394 108.948 18.7145C108.948 20.0349 109.273 21.2655 109.923 22.3716C110.566 23.4778 111.464 24.3489 112.612 24.9918C113.753 25.6348 114.99 25.9528 116.324 25.9528C117.002 25.9528 117.624 25.8214 118.011 25.7246V21.3277C117.666 21.466 116.961 21.7218 116.2 21.7218C114.513 21.7218 113.144 20.3529 113.144 18.6661C113.144 16.9792 114.513 15.6104 116.2 15.6104C117.043 15.6104 117.811 15.956 118.364 16.5091C119.021 17.2004 119.256 17.8226 119.256 19.3781V25.6486H123.459V18.5624C123.459 17.2696 123.134 16.0666 122.498 14.9467" fill="currentColor"/>
</svg>