<svg xmlns="http://www.w3.org/2000/svg" viewBox="0 0 600 165.28">
  <defs>
    <style>.cls-1{fill:#ed1d24;}.cls-2{fill:#fff;}</style>
  </defs>
  <title>logo bimota W</title>
  <g id="Livello_2" data-name="Livello 2">
    <g id="Livello_1-2" data-name="Livello 1">
      <path class="cls-1" d="M53.51,5.28a82.63,82.63,0,1,1,29.12,160C37,165.28,0,133.59,0,79.48v-74H18.71v74.6c0,40.38,28.62,66.46,63.92,66.46A63.92,63.92,0,1,0,53.51,25.71Z"/>
      <path class="cls-2" d="M53.51,34.94A55.88,55.88,0,1,1,82.63,138.51c-30.86,0-55.88-21.21-55.88-62.24V5.49H45.46V77.54c0,27.31,16.64,42.25,37.17,42.25a37.16,37.16,0,1,0,0-74.32A44.83,44.83,0,0,0,53.51,56Z"/>
      <path class="cls-2" d="M526.22,106.75v20c-.84.06-1.58.1-2.18.1a31.51,31.51,0,0,1-9.64-1.44,30.56,30.56,0,0,1-15.29-10.68,33.3,33.3,0,0,1-3.78-6.68,29.43,29.43,0,0,1-1.86-7.57,96.84,96.84,0,0,1-.55-11.3V39.82H514.2V57h12V76.48H513.33V94.26c0,8,3.72,13.74,12.89,12.49"/>
      <path class="cls-2" d="M451,56.08a35.4,35.4,0,1,0,35.4,35.4h0A35.38,35.38,0,0,0,451,56.08h0m0,50.35a15,15,0,1,1,15-15,15,15,0,0,1-15,15"/>
      <rect class="cls-2" x="283.36" y="56.96" width="20.42" height="68.49"/>
      <rect class="cls-2" x="283.36" y="39.82" width="20.42" height="11.69"/>
      <path class="cls-2" d="M361.08,63.44c6.61-5.48,12-7.59,19.41-7.59A27.17,27.17,0,0,1,403,67.1c4.5,6.19,5.77,11.39,5.77,23.78v34.57H388.35V89.24c0-5.73-.26-7.29-1.82-9.51A7.72,7.72,0,0,0,380,76.47a8,8,0,0,0-6.64,3.26c-1.56,2.22-2.08,4.43-2.08,9.38v36.34H350.87V89.11c0-5-.52-7.16-2.08-9.38a8,8,0,0,0-6.64-3.26,7.69,7.69,0,0,0-6.51,3.26c-1.56,2.22-1.83,3.78-1.83,9.51v36.21H313.4V90.88c0-12.39,1.26-17.59,5.77-23.78a27.15,27.15,0,0,1,22.5-11.25c7.46,0,12.8,2.11,19.41,7.59"/>
      <path class="cls-2" d="M271.4,73.4a33.92,33.92,0,0,0-13-12.74,36.77,36.77,0,0,0-18.11-4.61,35.32,35.32,0,0,0-7.8,1l-.31.07V78.57a21,21,0,0,1,11.37-1.67,14.81,14.81,0,1,1-12.24,25.82c-3.82-3.55-5.17-6.33-5.17-14.24V39.82H205.71v52.1A34.9,34.9,0,0,0,241,126.83a34.06,34.06,0,0,0,17.69-4.75,35.81,35.81,0,0,0,17.43-30.85,34.71,34.71,0,0,0-4.76-17.83"/>
      <path class="cls-2" d="M595.32,73.47a35,35,0,0,0-12.88-12.74,35.52,35.52,0,0,0-17.84-4.62A33.93,33.93,0,0,0,547,60.86a34.79,34.79,0,0,0-12.74,13,35.39,35.39,0,0,0-4.76,17.9,34.35,34.35,0,0,0,4.76,17.77,33.85,33.85,0,0,0,13.08,12.74,36.27,36.27,0,0,0,18,4.68,32.78,32.78,0,0,0,8.19-1.1V104.42a24.5,24.5,0,0,1-8.81,1.93A14.84,14.84,0,1,1,575.23,81c3.19,3.35,4.33,6.39,4.33,14v30.48H600V91a34.57,34.57,0,0,0-4.68-17.55"/>
    </g>
  </g>
</svg>