<svg xmlns="http://www.w3.org/2000/svg" width="41" height="42" viewBox="0 0 41 42" fill="none">
  <path d="M41.0003 0.5V9.51001C38.2803 10.53 36.1269 12.1733 34.5403 14.44C33.0669 16.7067 32.3303 19.0867 32.3303 21.58V41.13H22.9803V21.58C22.9803 15.9133 24.6236 11.2667 27.9103 7.64001C31.3103 4.01334 35.6736 1.63334 41.0003 0.5ZM18.0503 0.5V9.51001C15.3303 10.53 13.1769 12.1733 11.5903 14.44C10.1169 16.7067 9.38027 19.0867 9.38027 21.58V41.13H0.0302734V21.58C0.0302734 15.9133 1.67361 11.2667 4.96027 7.64001C8.36027 4.01334 12.7236 1.63334 18.0503 0.5Z" fill="#ED1C24"/>
</svg>