<svg xmlns="http://www.w3.org/2000/svg" width="41" height="41" viewBox="0 0 41 41" fill="none">
  <path d="M0.015625 41.0001V31.9901C2.73563 30.9701 4.83229 29.3268 6.30563 27.0601C7.89229 24.6801 8.68563 22.3001 8.68563 19.9201V0.370117H18.0356V19.9201C18.0356 25.4735 16.3356 30.1201 12.9356 33.8601C9.53563 37.4868 5.22896 39.8668 0.015625 41.0001ZM22.9656 41.0001V31.9901C25.6856 30.9701 27.7823 29.3268 29.2556 27.0601C30.8423 24.6801 31.6356 22.3001 31.6356 19.9201V0.370117H40.9856V19.9201C40.9856 25.4735 39.2856 30.1201 35.8856 33.8601C32.4856 37.4868 28.179 39.8668 22.9656 41.0001Z" fill="#ED1C24"/>
</svg>